<svg width="720" height="1024" viewBox="0 0 720 1024" fill="none" xmlns="http://www.w3.org/2000/svg">
<rect width="720" height="1024" fill="#FFC107"/>
<g clip-path="url(#clip0)">
<path d="M497.07 391.36C502.43 407.28 504.8 423.28 504.8 441.01C504.8 528.77 345.9 776.01 345.9 776.01C345.9 776.01 187 528.78 187 441.01C187 422.74 188.5 407.7 194.18 391.36" stroke="black" stroke-width="26" stroke-miterlimit="10"/>
<path d="M430.93 356.06C471.5 365 498.18 380.14 498.18 397.3C498.18 424.77 429.89 447.04 345.65 447.04C261.41 447.04 193.09 424.77 193.09 397.3C193.09 382.77 212.2 369.7 242.67 360.6" stroke="black" stroke-width="26" stroke-miterlimit="10" stroke-linecap="round"/>
<path d="M502.93 423.27C510.41 420.599 518.297 419.246 526.24 419.27C564.24 419.27 583.35 449.27 574.86 486.38C566.03 524.9 519.49 536.93 479.96 530.38" stroke="black" stroke-width="26" stroke-miterlimit="10"/>
<path d="M294.38 391.26C294.38 391.26 269.93 368 276.72 335.09C279.1 323.64 289.66 305.66 294.38 291.77C307.93 252 285.34 236 285.34 236" stroke="black" stroke-width="26" stroke-miterlimit="10" stroke-linecap="round"/>
<path d="M345.62 616.32C376.973 616.32 402.39 591.915 402.39 561.81C402.39 531.705 376.973 507.3 345.62 507.3C314.267 507.3 288.85 531.705 288.85 561.81C288.85 591.915 314.267 616.32 345.62 616.32Z" stroke="black" stroke-width="26" stroke-miterlimit="10"/>
<path d="M355.42 391.26C355.42 391.26 330.93 368 337.77 335.09C340.14 323.64 350.7 305.66 355.42 291.77C368.93 252 346.38 236 346.38 236" stroke="black" stroke-width="26" stroke-miterlimit="10" stroke-linecap="round"/>
<path d="M415.21 391.26C415.21 391.26 390.73 368 397.55 335.09C399.93 323.64 410.49 305.66 415.21 291.77C428.72 251.95 406.21 236 406.21 236" stroke="black" stroke-width="26" stroke-miterlimit="10" stroke-linecap="round"/>
</g>
<defs>
<clipPath id="clip0">
<rect width="415.86" height="577.04" fill="white" transform="translate(174 223)"/>
</clipPath>
</defs>
</svg>
